<?xml version="1.0" encoding="UTF-8" standalone="no"?>
<svg
   xmlns:dc="http://purl.org/dc/elements/1.1/"
   xmlns:cc="http://creativecommons.org/ns#"
   xmlns:rdf="http://www.w3.org/1999/02/22-rdf-syntax-ns#"
   xmlns:svg="http://www.w3.org/2000/svg"
   xmlns="http://www.w3.org/2000/svg"
   xmlns:sodipodi="http://sodipodi.sourceforge.net/DTD/sodipodi-0.dtd"
   xmlns:inkscape="http://www.inkscape.org/namespaces/inkscape"
   version="1.1"
   id="svg2"
   xml:space="preserve"
   width="630.66669"
   height="365.33334"
   viewBox="0 0 630.66669 365.33334"
   sodipodi:docname="ifis-logo-deutsch (1).eps"><metadata
     id="metadata8"><rdf:RDF><cc:Work
         rdf:about=""><dc:format>image/svg+xml</dc:format><dc:type
           rdf:resource="http://purl.org/dc/dcmitype/StillImage" /></cc:Work></rdf:RDF></metadata><defs
     id="defs6" /><sodipodi:namedview
     pagecolor="#ffffff"
     bordercolor="#666666"
     borderopacity="1"
     objecttolerance="10"
     gridtolerance="10"
     guidetolerance="10"
     inkscape:pageopacity="0"
     inkscape:pageshadow="2"
     inkscape:window-width="640"
     inkscape:window-height="480"
     id="namedview4" /><g
     id="g10"
     inkscape:groupmode="layer"
     inkscape:label="ink_ext_XXXXXX"
     transform="matrix(1.3333333,0,0,-1.3333333,0,365.33333)"><g
       id="g12"
       transform="scale(0.1)"><path
         d="M 656.246,569.926 H 985.898 V 1544.93 H 1178.4 v 274.69 H 985.898 c 3.551,61.19 19.822,102.68 48.812,124.47 28.99,21.79 82.38,32 160.19,30.64 v 292.4 c -17.7,1.19 -33.86,1.92 -48.47,2.17 -14.61,0.26 -28.7,0.37 -42.28,0.32 -62.9,-0.35 -123.373,-12.7 -181.42,-37.05 -58.042,-24.34 -107.496,-58.58 -148.359,-102.71 -35.312,-38.89 -62.211,-82.46 -80.695,-130.73 -18.488,-48.27 -30.961,-108.11 -37.43,-179.51 h -118.25 v -274.69 h 118.25 V 569.926"
         style="fill:#6797b0;fill-opacity:1;fill-rule:nonzero;stroke:none"
         id="path14" /><path
         d="M 7.40625,618.105 H 307.094 V 1868.07 H 7.40625 Z m 0,1392.505 H 307.094 v 274.68 H 7.40625 v -274.68"
         style="fill:#6797b0;fill-opacity:1;fill-rule:evenodd;stroke:none"
         id="path16" /><path
         d="M 76.7695,616.57 H 376.457 V 1866.54 H 76.7695 Z m 0,1392.5 H 376.457 v 274.69 H 76.7695 v -274.69"
         style="fill:#6797b0;fill-opacity:1;fill-rule:evenodd;stroke:none"
         id="path18" /><path
         d="M 13.5781,2281.82 H 380.91 V 1987.27 H 13.5781 v 294.55"
         style="fill:#bb284e;fill-opacity:1;fill-rule:nonzero;stroke:none"
         id="path20" /><path
         d="M 13.5781,2281.82 H 380.91 V 1987.27 H 13.5781 Z"
         style="fill:none;stroke:#bb284e;stroke-width:10.001;stroke-linecap:butt;stroke-linejoin:miter;stroke-miterlimit:3.86369;stroke-dasharray:none;stroke-opacity:1"
         id="path22" /><path
         d="m 1887.71,2253.66 c -70.53,-15.62 -127.6,-32.61 -171.21,-50.96 -43.61,-18.36 -83.5,-42.62 -119.69,-72.8 -58.99,-46.98 -102.91,-101.35 -131.77,-163.12 -28.85,-61.77 -43.23,-132.98 -43.13,-213.62 v -584.22 c 0,-73.6 8.27,-139.35 24.82,-197.245 16.54,-57.898 41.36,-108.632 74.45,-152.199 41.85,-55.926 92.28,-100.137 151.29,-132.633 59.01,-32.492 130.76,-56.23 215.24,-71.207 v 227.5 c -38.2,10.391 -67.67,22.824 -88.43,37.313 -20.75,14.48 -37.8,34.199 -51.16,59.148 -28.39,51.262 -42.59,114.353 -42.59,189.283 v 576.94 c 0.4,93.12 13.8,167.13 40.22,222.04 12.28,23.2 29.13,42.31 50.57,57.33 21.45,15.01 51.91,28.66 91.39,40.95 v 227.5"
         style="fill:#b8ccd1;fill-opacity:1;fill-rule:nonzero;stroke:none"
         id="path24" /><path
         d="m 26.5938,372.188 v 58.199 h 51.2148 v -58.199 z m 0,-358.5122 V 315.734 H 77.8086 V 13.6758 H 26.5938"
         style="fill:#6797b0;fill-opacity:1;fill-rule:evenodd;stroke:none"
         id="path26" /><path
         d="M 156.203,13.6758 V 315.734 h 45.981 V 272.82 c 22.144,32.875 54.136,49.313 95.976,49.313 18.168,0 34.871,-3.262 50.11,-9.797 15.238,-6.531 26.644,-15.098 34.214,-25.703 7.575,-10.602 12.875,-23.195 15.907,-37.774 1.89,-9.472 2.836,-26.039 2.836,-49.707 V 13.6758 H 350.012 V 197.215 c 0,20.836 -1.985,36.414 -5.953,46.738 -3.969,10.32 -11.008,18.559 -21.121,24.715 -10.11,6.156 -21.969,9.234 -35.575,9.234 -21.734,0 -40.488,-6.91 -56.269,-20.738 -15.781,-13.824 -23.672,-40.059 -23.672,-78.703 V 13.6758 h -51.219"
         style="fill:#6797b0;fill-opacity:1;fill-rule:nonzero;stroke:none"
         id="path28" /><path
         d="m 591.402,59.3359 6.985,-45.1875 C 584.023,11.1172 571.176,9.60156 559.84,9.60156 c -18.524,0 -32.883,2.94144 -43.086,8.82814 -10.207,5.8867 -17.387,13.625 -21.547,23.2148 -4.156,9.586 -6.238,29.7578 -6.238,60.5115 v 174 h -37.828 v 39.578 h 37.828 v 74.731 l 51.219,30.691 V 315.734 h 51.214 V 276.156 H 540.188 V 99.2109 c 0,-14.6289 0.894,-24.0312 2.687,-28.2109 1.793,-4.1758 4.715,-7.5 8.77,-9.9687 4.054,-2.4727 9.859,-3.7071 17.406,-3.7071 5.656,0 13.105,0.6719 22.351,2.0117"
         style="fill:#6797b0;fill-opacity:1;fill-rule:nonzero;stroke:none"
         id="path30" /><path
         d="m 847.664,111.449 52.981,-6.98 C 892.328,73.6758 876.922,49.7773 854.426,32.7773 831.934,15.7734 803.195,7.27344 768.223,7.27344 c -44.043,0 -78.969,13.56636 -104.774,40.70316 -25.804,27.1367 -38.707,65.1914 -38.707,114.1714 0,50.684 13.043,90.02 39.129,118.004 26.09,27.989 59.93,41.981 101.524,41.981 40.265,0 73.16,-13.711 98.679,-41.137 25.52,-27.43 38.281,-66.016 38.281,-115.766 0,-3.031 -0.093,-7.57 -0.281,-13.621 H 677.121 c 1.891,-33.101 11.258,-58.4488 28.09,-76.0426 16.836,-17.5937 37.836,-26.3906 63.004,-26.3906 18.726,0 34.711,4.9531 47.957,14.8555 13.242,9.9023 23.738,25.7109 31.492,47.4177 z M 680.031,193.512 H 848.23 c -2.269,25.402 -8.695,44.449 -19.289,57.144 -16.261,19.719 -37.339,29.574 -63.246,29.574 -23.449,0 -43.164,-7.863 -59.144,-23.597 -15.977,-15.731 -24.817,-36.774 -26.52,-63.121"
         style="fill:#6797b0;fill-opacity:1;fill-rule:evenodd;stroke:none"
         id="path32" /><path
         d="M 965.074,13.6758 V 315.734 h 45.976 v -46.269 c 11.77,21.449 22.63,35.59 32.6,42.422 9.96,6.832 20.92,10.246 32.88,10.246 17.27,0 34.83,-5.391 52.67,-16.176 l -18.27,-47.277 c -12.43,6.996 -24.84,10.492 -37.26,10.492 -11.1,0 -21.07,-3.356 -29.92,-10.074 -8.84,-6.719 -15.16,-16.039 -18.94,-27.965 -5.68,-18.168 -8.52,-38.043 -8.52,-59.617 V 13.6758 h -51.216"
         style="fill:#6797b0;fill-opacity:1;fill-rule:nonzero;stroke:none"
         id="path34" /><path
         d="M 1160.08,13.6758 V 315.734 h 45.98 V 272.82 c 22.14,32.875 54.14,49.313 95.97,49.313 18.17,0 34.88,-3.262 50.11,-9.797 15.24,-6.531 26.65,-15.098 34.22,-25.703 7.57,-10.602 12.87,-23.195 15.9,-37.774 1.9,-9.472 2.84,-26.039 2.84,-49.707 V 13.6758 h -51.21 V 197.215 c 0,20.836 -1.99,36.414 -5.96,46.738 -3.97,10.32 -11,18.559 -21.12,24.715 -10.11,6.156 -21.97,9.234 -35.57,9.234 -21.74,0 -40.49,-6.91 -56.28,-20.738 -15.78,-13.824 -23.67,-40.059 -23.67,-78.703 V 13.6758 h -51.21"
         style="fill:#6797b0;fill-opacity:1;fill-rule:nonzero;stroke:none"
         id="path36" /><path
         d="m 1690.16,111.449 52.98,-6.98 c -8.32,-30.7932 -23.72,-54.6917 -46.22,-71.6917 -22.49,-17.0039 -51.23,-25.50386 -86.2,-25.50386 -44.04,0 -78.97,13.56636 -104.77,40.70316 -25.81,27.1367 -38.72,65.1914 -38.72,114.1714 0,50.684 13.05,90.02 39.14,118.004 26.08,27.989 59.92,41.981 101.52,41.981 40.27,0 73.16,-13.711 98.68,-41.137 25.52,-27.43 38.28,-66.016 38.28,-115.766 0,-3.031 -0.1,-7.57 -0.28,-13.621 h -224.95 c 1.89,-33.101 11.25,-58.4488 28.09,-76.0426 16.83,-17.5937 37.83,-26.3906 63,-26.3906 18.73,0 34.71,4.9531 47.95,14.8555 13.25,9.9023 23.75,25.7109 31.5,47.4177 z m -167.64,82.063 h 168.2 c -2.26,25.402 -8.69,44.449 -19.28,57.144 -16.26,19.719 -37.35,29.574 -63.25,29.574 -23.45,0 -43.17,-7.863 -59.14,-23.597 -15.98,-15.731 -24.82,-36.774 -26.53,-63.121"
         style="fill:#6797b0;fill-opacity:1;fill-rule:evenodd;stroke:none"
         id="path38" /><path
         d="m 1919.31,59.3359 6.99,-45.1875 c -14.37,-3.0312 -27.21,-4.54684 -38.55,-4.54684 -18.52,0 -32.88,2.94144 -43.09,8.82814 -10.2,5.8867 -17.38,13.625 -21.54,23.2148 -4.16,9.586 -6.24,29.7578 -6.24,60.5115 v 174 h -37.83 v 39.578 h 37.83 v 74.731 l 51.21,30.691 V 315.734 h 51.22 v -39.578 h -51.22 V 99.2109 c 0,-14.6289 0.9,-24.0312 2.7,-28.2109 1.78,-4.1758 4.71,-7.5 8.76,-9.9687 4.06,-2.4727 9.86,-3.7071 17.41,-3.7071 5.66,0 13.11,0.6719 22.35,2.0117"
         style="fill:#6797b0;fill-opacity:1;fill-rule:nonzero;stroke:none"
         id="path40" /><path
         d="m 1949.16,138.805 v 51.215 h 158.3 v -51.215 h -158.3"
         style="fill:#6797b0;fill-opacity:1;fill-rule:nonzero;stroke:none"
         id="path42" /><path
         d="m 2143.58,103.887 50.63,8.148 c 2.86,-20.2928 10.78,-35.8436 23.79,-46.6483 13.01,-10.8086 31.19,-16.2109 54.54,-16.2109 23.55,0 41.02,4.7812 52.41,14.3476 11.4,9.5625 17.09,20.7774 17.09,33.6485 0,11.5581 -5.11,20.6481 -15.33,27.2731 -7.14,4.543 -24.59,10.317 -52.37,17.325 -37.41,9.449 -63.36,17.628 -77.85,24.531 -14.49,6.902 -25.47,16.449 -32.95,28.644 -7.49,12.196 -11.23,25.664 -11.23,40.41 0,13.418 3.08,25.852 9.23,37.293 6.15,11.438 14.52,20.938 25.12,28.5 7.95,5.86 18.78,10.825 32.5,14.891 13.71,4.063 28.42,6.094 44.13,6.094 23.65,0 44.42,-3.418 62.3,-10.266 17.88,-6.844 31.08,-16.109 39.59,-27.797 8.52,-11.691 14.39,-27.324 17.61,-46.906 l -50.06,-6.984 c -2.27,15.726 -8.83,28 -19.69,36.82 -10.87,8.82 -26.22,13.23 -46.06,13.23 -23.44,0 -40.16,-3.878 -50.18,-11.644 -10.01,-7.762 -15.02,-16.852 -15.02,-27.266 0,-6.629 2.08,-12.593 6.24,-17.898 4.15,-5.492 10.67,-10.035 19.55,-13.633 5.11,-1.894 20.13,-6.25 45.07,-13.066 36.09,-9.645 61.32,-17.539 75.69,-23.684 14.37,-6.144 25.64,-15.078 33.82,-26.801 8.18,-11.722 12.27,-26.277 12.27,-43.672 0,-17.0152 -4.97,-33.0426 -14.93,-48.0738 -9.95,-15.0313 -24.31,-26.6602 -43.08,-34.8828 -18.77,-8.2227 -40.01,-12.33596 -63.71,-12.33596 -39.24,0 -69.16,8.12106 -89.73,24.36716 -20.57,16.2422 -33.7,40.3242 -39.39,72.2464"
         style="fill:#6797b0;fill-opacity:1;fill-rule:nonzero;stroke:none"
         id="path44" /><path
         d="m 2454.95,372.188 v 58.199 h 51.22 v -58.199 z m 0,-358.5122 V 315.734 h 51.22 V 13.6758 h -51.22"
         style="fill:#6797b0;fill-opacity:1;fill-rule:evenodd;stroke:none"
         id="path46" /><path
         d="m 2781.86,124.254 50.05,-6.984 c -5.48,-34.4106 -19.53,-61.3442 -42.14,-80.8052 -22.6,-19.4609 -50.36,-29.19136 -83.28,-29.19136 -41.24,0 -74.4,13.47266 -99.46,40.42186 -25.07,26.9492 -37.6,65.5707 -37.6,115.8707 0,32.528 5.4,60.989 16.19,85.383 10.79,24.395 27.21,42.692 49.26,54.891 22.06,12.195 46.05,18.293 71.99,18.293 32.75,0 59.53,-8.285 80.35,-24.856 20.83,-16.57 34.17,-40.101 40.04,-70.589 l -49.47,-7.567 c -4.74,20.274 -13.14,35.527 -25.19,45.762 -12.05,10.23 -26.61,15.347 -43.69,15.347 -25.8,0 -46.78,-9.226 -62.91,-27.675 -16.12,-18.453 -24.19,-47.641 -24.19,-87.571 0,-40.496 7.77,-69.9215 23.32,-88.277 15.53,-18.3515 35.81,-27.5312 60.83,-27.5312 20.09,0 36.86,6.1406 50.32,18.418 13.45,12.2734 21.98,31.1601 25.58,56.6602"
         style="fill:#6797b0;fill-opacity:1;fill-rule:nonzero;stroke:none"
         id="path48" /><path
         d="M 2875.56,13.6758 V 430.387 h 51.22 V 280.469 c 23.77,27.777 53.76,41.664 89.97,41.664 22.26,0 41.59,-4.403 58,-13.207 16.41,-8.805 28.16,-20.973 35.23,-36.496 7.07,-15.528 10.61,-38.063 10.61,-67.602 V 13.6758 h -51.22 V 204.68 c 0,25.543 -5.51,44.133 -16.52,55.769 -11.01,11.637 -26.59,17.453 -46.73,17.453 -15.06,0 -29.22,-3.925 -42.49,-11.777 -13.27,-7.848 -22.73,-18.492 -28.38,-31.926 -5.64,-13.433 -8.47,-31.976 -8.47,-55.629 V 13.6758 h -51.22"
         style="fill:#6797b0;fill-opacity:1;fill-rule:nonzero;stroke:none"
         id="path50" /><path
         d="m 3405.64,111.449 52.99,-6.98 c -8.32,-30.7932 -23.73,-54.6917 -46.22,-71.6917 -22.5,-17.0039 -51.23,-25.50386 -86.21,-25.50386 -44.04,0 -78.97,13.56636 -104.77,40.70316 -25.8,27.1367 -38.71,65.1914 -38.71,114.1714 0,50.684 13.05,90.02 39.13,118.004 26.09,27.989 59.93,41.981 101.53,41.981 40.26,0 73.16,-13.711 98.67,-41.137 25.53,-27.43 38.29,-66.016 38.29,-115.766 0,-3.031 -0.1,-7.57 -0.29,-13.621 H 3235.1 c 1.89,-33.101 11.26,-58.4488 28.09,-76.0426 16.84,-17.5937 37.84,-26.3906 63.01,-26.3906 18.72,0 34.71,4.9531 47.95,14.8555 13.24,9.9023 23.74,25.7109 31.49,47.4177 z m -167.63,82.063 h 168.2 c -2.27,25.402 -8.7,44.449 -19.29,57.144 -16.26,19.719 -37.34,29.574 -63.24,29.574 -23.45,0 -43.17,-7.863 -59.14,-23.597 -15.99,-15.731 -24.83,-36.774 -26.53,-63.121"
         style="fill:#6797b0;fill-opacity:1;fill-rule:evenodd;stroke:none"
         id="path52" /><path
         d="M 3523.05,13.6758 V 315.734 h 45.98 v -46.269 c 11.77,21.449 22.63,35.59 32.6,42.422 9.96,6.832 20.92,10.246 32.88,10.246 17.27,0 34.83,-5.391 52.67,-16.176 l -18.27,-47.277 c -12.43,6.996 -24.84,10.492 -37.26,10.492 -11.1,0 -21.07,-3.356 -29.92,-10.074 -8.84,-6.719 -15.16,-16.039 -18.94,-27.965 -5.68,-18.168 -8.52,-38.043 -8.52,-59.617 V 13.6758 h -51.22"
         style="fill:#6797b0;fill-opacity:1;fill-rule:nonzero;stroke:none"
         id="path54" /><path
         d="M 3718.06,13.6758 V 430.387 h 51.22 V 280.469 c 23.76,27.777 53.75,41.664 89.97,41.664 22.25,0 41.59,-4.403 58,-13.207 16.41,-8.805 28.15,-20.973 35.22,-36.496 7.07,-15.528 10.61,-38.063 10.61,-67.602 V 13.6758 h -51.22 V 204.68 c 0,25.543 -5.5,44.133 -16.52,55.769 -11,11.637 -26.58,17.453 -46.72,17.453 -15.06,0 -29.23,-3.925 -42.49,-11.777 -13.28,-7.848 -22.74,-18.492 -28.38,-31.926 -5.65,-13.433 -8.47,-31.976 -8.47,-55.629 V 13.6758 h -51.22"
         style="fill:#6797b0;fill-opacity:1;fill-rule:nonzero;stroke:none"
         id="path56" /><path
         d="m 4248.14,111.449 52.98,-6.98 C 4292.8,73.6758 4277.39,49.7773 4254.9,32.7773 4232.41,15.7734 4203.67,7.27344 4168.7,7.27344 c -44.05,0 -78.97,13.56636 -104.77,40.70316 -25.81,27.1367 -38.72,65.1914 -38.72,114.1714 0,50.684 13.05,90.02 39.14,118.004 26.08,27.989 59.93,41.981 101.52,41.981 40.27,0 73.16,-13.711 98.68,-41.137 25.52,-27.43 38.28,-66.016 38.28,-115.766 0,-3.031 -0.09,-7.57 -0.28,-13.621 H 4077.6 c 1.89,-33.101 11.25,-58.4488 28.09,-76.0426 16.83,-17.5937 37.83,-26.3906 63,-26.3906 18.72,0 34.71,4.9531 47.95,14.8555 13.25,9.9023 23.75,25.7109 31.5,47.4177 z m -167.63,82.063 h 168.19 c -2.26,25.402 -8.69,44.449 -19.28,57.144 -16.26,19.719 -37.35,29.574 -63.25,29.574 -23.45,0 -43.16,-7.863 -59.14,-23.597 -15.98,-15.731 -24.82,-36.774 -26.52,-63.121"
         style="fill:#6797b0;fill-opacity:1;fill-rule:evenodd;stroke:none"
         id="path58" /><path
         d="m 4366.13,372.188 v 58.199 h 51.22 v -58.199 z m 0,-358.5122 V 315.734 h 51.22 V 13.6758 h -51.22"
         style="fill:#6797b0;fill-opacity:1;fill-rule:evenodd;stroke:none"
         id="path60" /><path
         d="m 4606.91,59.3359 6.98,-45.1875 c -14.36,-3.0312 -27.21,-4.54684 -38.55,-4.54684 -18.52,0 -32.88,2.94144 -43.09,8.82814 -10.2,5.8867 -17.38,13.625 -21.54,23.2148 -4.16,9.586 -6.24,29.7578 -6.24,60.5115 v 174 h -37.83 v 39.578 h 37.83 v 74.731 l 51.22,30.691 V 315.734 h 51.22 v -39.578 h -51.22 V 99.2109 c 0,-14.6289 0.9,-24.0312 2.69,-28.2109 1.79,-4.1758 4.71,-7.5 8.77,-9.9687 4.05,-2.4727 9.85,-3.7071 17.4,-3.7071 5.66,0 13.11,0.6719 22.36,2.0117"
         style="fill:#6797b0;fill-opacity:1;fill-rule:nonzero;stroke:none"
         id="path62" /><path
         d="M 4671.67,13.6758 V 71.875 h 58.2 V 13.6758 h -58.2"
         style="fill:#6797b0;fill-opacity:1;fill-rule:nonzero;stroke:none"
         id="path64" /><path
         d="m 4255.2,611.656 c 70.53,15.621 127.6,32.61 171.21,50.961 43.6,18.352 83.5,42.617 119.69,72.797 58.99,46.981 102.91,101.356 131.77,163.121 28.85,61.766 43.23,132.975 43.13,213.625 v 584.22 c 0,73.59 -8.27,139.34 -24.82,197.24 -16.54,57.9 -41.36,108.63 -74.45,152.2 -41.85,55.92 -92.28,100.13 -151.29,132.63 -59.01,32.49 -130.76,56.23 -215.24,71.21 v -227.5 c 38.2,-10.39 67.68,-22.83 88.43,-37.31 20.75,-14.49 37.8,-34.21 51.16,-59.15 28.39,-51.27 42.59,-114.36 42.59,-189.29 v -576.93 c -0.4,-93.13 -13.8,-167.14 -40.22,-222.042 -12.28,-23.208 -29.13,-42.317 -50.58,-57.333 -21.44,-15.015 -51.9,-28.664 -91.38,-40.949 v -227.5"
         style="fill:#b8ccd1;fill-opacity:1;fill-rule:nonzero;stroke:none"
         id="path66" /><path
         d="m 2134.55,2730 h 460.91 V 2387.27 H 2134.55 V 2730"
         style="fill:#bb284e;fill-opacity:1;fill-rule:nonzero;stroke:none"
         id="path68" /><path
         d="m 2134.55,2730 h 460.91 v -342.73 h -460.91 z"
         style="fill:none;stroke:#bb284e;stroke-width:10.001;stroke-linecap:butt;stroke-linejoin:miter;stroke-miterlimit:3.86369;stroke-dasharray:none;stroke-opacity:1"
         id="path70" /><path
         d="m 2134.55,2269.09 h 454.54 V 611.656 H 2134.55 V 2269.09"
         style="fill:#bb284e;fill-opacity:1;fill-rule:nonzero;stroke:none"
         id="path72" /><path
         d="m 2134.55,2269.09 h 454.54 V 611.656 h -454.54 z"
         style="fill:none;stroke:#bb284e;stroke-width:10.001;stroke-linecap:butt;stroke-linejoin:miter;stroke-miterlimit:3.86369;stroke-dasharray:none;stroke-opacity:1"
         id="path74" /><path
         d="m 2828.42,1149.34 c 8.11,-73.53 20.3,-133.92 36.58,-181.188 16.27,-47.269 39.64,-91.191 70.11,-131.769 55.16,-71.192 127.98,-127.336 218.44,-168.438 90.46,-41.101 187.43,-62.074 290.9,-62.922 178.44,3.84 326.9,57.133 445.4,159.883 118.49,102.746 179.99,231.934 184.5,387.554 1.58,118.99 -35.12,215.28 -110.08,288.86 -74.97,73.59 -197.68,133.86 -368.14,180.83 -80.08,23.68 -131.07,38.95 -152.97,45.8 -21.91,6.84 -41.01,13.5 -57.31,19.96 -55.15,25.05 -82.73,62.62 -82.73,112.72 1.01,38.36 16.23,69.67 45.67,93.94 29.45,24.27 67.08,36.79 112.9,37.57 44.88,-0.12 80.93,-11.6 108.15,-34.44 27.22,-22.83 45.17,-56.23 53.86,-100.2 h 405.93 c -10.38,139.03 -67.86,252.82 -172.45,341.36 -104.59,88.53 -235.27,134.27 -392.04,137.19 -164.05,-3.38 -299.87,-50.54 -407.46,-141.5 -107.59,-90.94 -163.35,-205.38 -167.29,-343.31 -0.07,-67.45 12.97,-129.03 39.13,-184.74 26.15,-55.71 65.85,-104.77 119.09,-147.17 38.9,-32.56 78.89,-58.26 119.96,-77.11 41.08,-18.85 107.76,-42.21 200.05,-70.06 113.25,-32.88 190.95,-64.19 233.11,-93.94 42.15,-29.75 62.12,-67.32 59.89,-112.72 -1.08,-44.89 -18.74,-81.94 -53,-111.164 -34.25,-29.223 -78.64,-44.359 -133.14,-45.402 -59.68,-0.457 -107.5,15.328 -143.46,47.359 -35.96,32.027 -63.94,83.047 -83.93,153.047 h -419.67"
         style="fill:#bb284e;fill-opacity:1;fill-rule:nonzero;stroke:none"
         id="path76" /></g></g></svg>
